<?xml version="1.0" standalone="no"?>
<!DOCTYPE svg PUBLIC "-//W3C//DTD SVG 20010904//EN"
 "http://www.w3.org/TR/2001/REC-SVG-20010904/DTD/svg10.dtd">
<svg version="1.0" xmlns="http://www.w3.org/2000/svg"
 width="1280.000000pt" height="706.000000pt" viewBox="0 0 1280.000000 706.000000"
 preserveAspectRatio="xMidYMid meet">
<metadata>
Created by potrace 1.15, written by Peter Selinger 2001-2017
</metadata>
<g transform="translate(0.000000,706.000000) scale(0.100000,-0.100000)"
fill="#000000" stroke="none">
<path d="M2838 7051 c-84 -27 -264 -166 -322 -249 -24 -34 -31 -55 -34 -108
-4 -60 -3 -66 17 -71 17 -4 19 -8 10 -19 -6 -8 -21 -11 -33 -8 -19 4 -23 -1
-35 -46 -26 -101 -20 -141 32 -219 59 -88 168 -205 221 -236 43 -25 193 -71
331 -101 75 -17 78 -18 45 -25 -18 -4 -40 -15 -46 -24 -17 -23 -36 -10 -28 19
5 21 1 24 -42 30 -98 13 -138 8 -187 -25 -68 -45 -211 -200 -241 -261 -60
-123 -108 -546 -72 -633 36 -85 181 -238 281 -296 l44 -25 -45 -13 c-32 -10
-44 -18 -44 -32 0 -12 -5 -16 -15 -13 -8 4 -15 18 -15 31 l0 26 -79 -6 c-51
-3 -91 -12 -111 -24 -45 -25 -147 -156 -200 -255 l-45 -83 -3 -153 c-5 -176
12 -402 34 -447 8 -17 26 -43 41 -59 l27 -29 -57 6 c-70 9 -102 -3 -177 -65
l-55 -44 -1 116 c-2 203 -29 281 -147 423 -22 26 -38 50 -36 52 2 2 42 17 88
34 46 17 103 42 126 56 51 30 139 136 248 300 96 144 127 207 127 258 0 94
-60 289 -117 380 -32 50 -125 97 -156 78 -27 -17 -43 6 -21 30 14 15 10 20
-33 51 -26 20 -58 40 -70 47 -52 27 -172 5 -338 -61 -63 -25 -92 -44 -135 -88
-62 -63 -154 -190 -248 -343 l-64 -102 5 -90 c3 -65 13 -115 35 -180 16 -49
29 -91 28 -92 -1 -2 -39 -9 -84 -17 -98 -17 -134 -37 -173 -95 l-29 -45 37
-40 c21 -23 27 -31 13 -19 -14 11 -34 23 -45 25 -19 3 -20 14 -27 157 -7 164
-15 194 -60 253 l-28 36 56 12 c86 18 163 47 201 76 40 30 130 179 220 363 59
119 67 142 71 207 5 81 -20 252 -47 324 l-18 45 72 -71 c39 -40 89 -79 110
-89 99 -41 379 -109 503 -121 99 -10 194 40 340 180 90 87 106 117 100 201 -3
44 -6 50 -26 53 -22 3 -23 4 -5 17 10 8 27 12 39 9 18 -5 23 2 35 43 24 84 19
141 -21 207 -53 88 -191 230 -253 260 -92 45 -441 126 -542 126 -52 0 -142
-44 -225 -112 -52 -41 -61 -46 -66 -31 -4 10 -17 42 -30 72 -20 45 -26 52 -39
41 -16 -13 -45 -7 -45 10 0 5 7 10 16 10 14 0 16 7 11 45 -4 24 -13 60 -21 79
-20 47 -110 116 -235 178 -146 73 -190 75 -343 18 -147 -55 -299 -125 -365
-166 -63 -40 -122 -117 -189 -246 -59 -113 -63 -168 -21 -260 25 -56 39 -69
52 -48 4 7 14 6 28 -1 21 -12 21 -12 1 -20 -19 -7 -20 -12 -13 -62 8 -64 17
-82 56 -119 36 -34 200 -137 230 -144 13 -4 23 -9 23 -13 0 -3 -21 -40 -46
-81 -25 -41 -78 -140 -117 -220 l-72 -145 1 -125 c1 -115 18 -213 49 -292 6
-16 1 -18 -44 -18 -29 0 -66 -6 -84 -13 -61 -26 -191 -188 -244 -304 -23 -50
-26 -72 -30 -212 -7 -199 9 -386 36 -439 24 -48 131 -149 205 -193 30 -19 54
-37 53 -40 -1 -3 -38 -35 -81 -70 -119 -96 -138 -123 -144 -208 -5 -69 -4 -71
18 -71 19 0 21 -2 9 -16 -8 -9 -21 -13 -35 -10 -20 5 -24 0 -38 -42 -29 -92
-30 -117 -3 -176 58 -126 198 -282 285 -317 l54 -22 -35 -18 c-42 -22 -66 -59
-101 -156 -36 -101 -56 -195 -56 -259 0 -75 77 -309 162 -489 32 -68 46 -87
95 -122 l42 -30 -72 -22 c-123 -38 -167 -67 -200 -134 -24 -48 -27 -60 -16
-73 19 -23 -9 -38 -32 -18 -15 14 -20 11 -51 -28 -68 -85 -71 -95 -65 -172 8
-91 50 -234 90 -310 23 -44 54 -79 117 -132 102 -87 291 -227 340 -251 44 -23
179 -23 262 -1 l57 16 11 -28 c19 -46 51 -83 130 -152 101 -88 285 -223 338
-249 85 -42 303 -9 454 67 69 35 132 152 90 169 -16 7 -15 8 3 15 13 5 26 2
38 -8 9 -8 17 -12 17 -8 0 4 30 -19 68 -51 178 -154 361 -278 424 -287 92 -14
324 43 411 100 45 30 97 128 78 147 -6 6 -11 15 -11 19 0 12 38 10 45 -3 9
-14 47 22 85 81 21 33 30 59 30 89 0 62 22 47 38 -25 28 -128 63 -224 94 -260
80 -91 338 -206 426 -189 58 11 114 46 108 68 -3 13 0 17 12 15 9 -2 18 -14
20 -26 3 -20 8 -22 35 -17 144 29 175 53 241 189 84 174 97 242 72 381 -22
122 -53 257 -77 334 -10 35 -19 65 -19 67 0 2 20 4 45 4 74 0 176 67 162 104
-4 11 0 16 12 16 17 0 35 -31 32 -54 -1 -4 3 -14 9 -21 17 -21 -8 -30 -29 -11
-16 15 -21 13 -62 -29 -60 -61 -79 -100 -79 -161 0 -68 25 -207 52 -291 21
-65 28 -74 172 -218 168 -168 257 -239 319 -256 93 -25 373 23 442 75 42 33
82 111 66 130 -9 10 -8 15 5 20 10 4 22 -1 30 -11 13 -17 18 -14 60 32 71 78
77 95 71 198 l-5 89 33 -73 c88 -202 192 -380 243 -414 85 -59 356 -112 439
-87 58 17 116 69 110 98 -5 31 29 34 38 4 3 -11 9 -20 13 -20 4 0 38 17 77 38
57 31 73 46 91 83 36 71 66 239 62 339 l-4 86 49 -33 c43 -29 57 -33 112 -33
56 0 64 3 70 21 9 26 29 10 30 -23 0 -19 9 -25 55 -35 117 -28 187 4 340 157
l86 85 18 -55 c36 -110 88 -218 119 -248 64 -62 305 -152 407 -152 37 0 147
58 143 76 -1 5 -3 16 -6 24 -2 8 -2 12 0 8 3 -5 11 -8 18 -8 8 0 17 -9 20 -20
5 -16 12 -19 33 -14 41 10 125 44 141 57 25 21 91 174 114 264 12 49 23 90 24
92 1 2 40 -13 86 -33 119 -51 161 -55 232 -22 47 21 55 29 50 45 -5 16 -2 18
15 14 13 -3 20 -14 20 -29 0 -21 3 -22 38 -17 20 2 60 11 89 19 67 18 107 64
173 198 70 144 82 194 72 292 -5 43 -9 80 -8 81 1 1 21 -1 44 -4 31 -4 42 -10
38 -20 -16 -40 -26 -185 -16 -229 15 -68 100 -260 173 -394 51 -94 71 -121
108 -146 78 -52 240 -94 365 -94 82 0 113 11 157 58 24 25 27 33 18 50 -9 18
-8 19 11 15 11 -4 23 -14 25 -25 7 -24 14 -23 89 12 57 28 96 61 107 93 2 7
25 -8 55 -36 62 -57 86 -67 159 -67 47 0 56 3 60 20 4 16 8 18 19 9 8 -7 11
-21 8 -34 -5 -21 0 -24 65 -40 88 -21 121 -16 199 35 79 51 218 184 243 231
41 81 116 385 126 510 7 88 -8 131 -81 233 -53 74 -173 192 -210 206 -15 5
-51 10 -81 10 -45 0 -55 -3 -60 -21 -5 -16 -10 -18 -21 -8 -10 8 -11 16 -4 30
8 13 6 20 -6 27 -13 7 -6 13 37 27 113 36 162 82 226 210 25 50 73 191 73 216
0 10 5 21 10 24 6 3 10 -3 10 -15 0 -80 159 -207 347 -276 l71 -26 -34 -30
c-44 -39 -148 -177 -179 -238 -38 -75 -47 -155 -43 -406 3 -265 2 -260 102
-360 63 -62 149 -125 223 -163 70 -35 193 -23 193 20 0 16 3 18 19 9 13 -6 17
-17 14 -30 -5 -19 -1 -20 84 -20 80 0 93 3 124 25 79 59 215 247 240 335 10
32 13 121 14 300 0 244 -1 257 -22 295 -64 117 -289 285 -383 285 -63 0 -120
-19 -120 -41 0 -13 -5 -16 -16 -12 -10 4 -14 14 -11 29 4 23 1 24 -47 24 -45
1 -49 2 -33 14 9 7 17 21 17 30 0 11 6 16 18 14 9 -2 17 -11 17 -20 0 -28 12
-31 82 -18 82 14 108 29 152 86 19 25 37 41 41 37 4 -4 15 -30 24 -56 33 -89
120 -150 294 -206 155 -50 194 -49 274 6 30 21 36 29 28 43 -8 15 -6 17 10 13
11 -3 22 -14 25 -24 8 -24 10 -24 90 3 51 16 74 31 100 61 54 62 135 290 135
377 0 74 -97 401 -156 527 -30 62 -102 115 -216 159 -40 15 -74 28 -75 29 -2
1 46 51 105 111 134 135 154 173 181 344 29 180 44 381 33 424 -23 82 -152
228 -274 311 -39 26 -63 35 -94 35 -69 0 -104 -10 -104 -31 0 -12 -5 -16 -15
-13 -9 4 -15 19 -15 35 0 26 -3 29 -35 29 -41 0 -45 12 -11 28 77 35 162 156
277 396 80 168 87 196 66 282 -23 94 -109 265 -160 318 -56 58 -167 90 -167
49 0 -16 -1 -16 -17 -1 -13 14 -14 20 -4 32 7 8 10 19 7 24 -11 18 -134 72
-163 72 -68 0 -295 -104 -366 -169 -81 -73 -287 -473 -287 -557 0 -20 5 -56
11 -82 16 -68 111 -260 153 -308 l35 -41 -45 5 c-40 4 -46 2 -51 -17 -4 -17
-8 -19 -20 -9 -8 7 -12 21 -9 34 5 18 -1 25 -37 39 -64 26 -135 30 -181 11
-57 -24 -194 -118 -249 -171 -48 -47 -95 -127 -117 -202 -7 -24 -14 -43 -16
-43 -2 0 -18 9 -36 20 -54 31 -166 70 -204 70 -19 0 -58 -10 -85 -21 -41 -18
-48 -25 -43 -42 5 -16 3 -19 -11 -14 -9 4 -19 7 -21 7 -2 0 -4 10 -4 21 0 21
-3 22 -62 15 -101 -10 -123 -26 -211 -146 -14 -20 -17 -21 -12 -5 4 11 9 48
12 82 5 58 4 61 -17 65 -29 4 -39 28 -13 28 22 0 53 75 53 127 0 92 -137 322
-233 390 -20 14 -64 31 -99 38 -113 24 -345 46 -443 43 -81 -3 -94 -1 -90 12
13 41 45 260 55 377 9 103 9 141 -1 170 -24 78 -138 211 -251 296 l-46 35 46
-1 c86 -1 210 71 334 195 70 70 88 107 88 183 0 48 -2 55 -20 55 -17 0 -19 3
-8 19 9 15 16 17 31 9 23 -12 22 -12 34 37 l9 40 28 -55 c16 -30 40 -67 54
-83 l26 -27 -108 -105 c-78 -77 -114 -120 -132 -159 -33 -72 -65 -223 -67
-316 -2 -72 0 -77 35 -125 20 -28 48 -61 62 -74 22 -21 26 -22 32 -7 3 9 17
16 32 16 23 0 24 -1 9 -17 -14 -16 -14 -21 4 -58 30 -61 67 -93 133 -115 153
-51 329 -64 401 -31 52 24 214 160 336 281 79 79 100 107 119 156 30 80 60
226 60 299 l0 60 44 -90 c57 -118 118 -173 351 -317 170 -105 188 -111 280
-105 86 6 184 35 289 87 79 39 104 65 127 132 17 49 17 54 2 65 -15 11 -15 13
1 19 9 3 23 1 31 -6 17 -14 39 8 77 78 13 23 26 42 29 42 3 0 34 -18 68 -40
34 -22 93 -57 131 -77 68 -35 72 -36 152 -30 128 9 332 88 383 149 34 41 52
104 37 129 -10 16 -10 21 3 25 8 4 22 1 30 -6 18 -15 13 -20 65 60 41 63 42
67 37 130 -10 112 -87 302 -150 369 -79 82 -409 293 -487 310 -79 17 -242 -23
-375 -93 -66 -34 -79 -45 -100 -85 -32 -62 -37 -93 -17 -107 16 -12 16 -13 -1
-19 -9 -4 -24 -1 -33 6 -14 11 -19 9 -35 -11 -11 -14 -29 -43 -41 -65 -11 -22
-22 -41 -23 -43 -2 -2 -47 23 -102 56 -54 32 -114 67 -133 77 -75 39 -243 10
-404 -69 l-85 -41 -17 45 c-62 167 -123 228 -389 392 -191 118 -224 125 -367
89 -153 -39 -274 -103 -306 -161 -28 -50 -37 -100 -21 -111 12 -8 12 -11 -1
-18 -10 -7 -20 -5 -31 5 -16 14 -20 12 -47 -28 -42 -61 -62 -104 -62 -130 0
-20 -4 -18 -32 17 -68 86 -147 153 -205 175 -149 56 -481 126 -543 115 -50
-10 -135 -57 -212 -120 l-66 -54 -11 31 c-15 42 -91 147 -163 224 -40 42 -81
74 -122 94 -109 53 -494 138 -566 125 -98 -18 -314 -186 -364 -283 -9 -18 -16
-55 -16 -87 0 -49 3 -58 20 -62 16 -4 18 -8 9 -19 -7 -8 -21 -11 -35 -8 -21 5
-24 2 -30 -35 -4 -23 -9 -41 -13 -41 -3 0 -19 25 -35 55 -36 69 -85 113 -246
219 -203 135 -266 166 -336 166 -102 0 -291 -61 -374 -121 -62 -45 -107 -149
-73 -168 17 -9 17 -10 0 -16 -9 -4 -24 -1 -33 6 -14 11 -19 9 -35 -11 -11 -14
-33 -52 -49 -85 -29 -56 -30 -64 -20 -115 29 -153 107 -319 179 -379 37 -31
185 -133 287 -198 16 -10 12 -11 -20 -6 -30 5 -42 2 -52 -11 -11 -16 -13 -16
-19 4 -4 11 -2 27 5 35 9 10 -3 20 -61 49 -39 20 -84 36 -99 36 -43 0 -129
-29 -220 -75 -119 -60 -165 -97 -211 -168 -58 -89 -216 -412 -224 -457 -8 -46
16 -149 55 -236 35 -77 106 -190 131 -208 17 -11 13 -13 -31 -8 -44 4 -51 2
-58 -18 -7 -19 -10 -20 -21 -7 -9 12 -10 21 -2 35 10 18 5 22 -51 41 -34 12
-81 21 -103 21 -69 0 -209 -84 -316 -190 -57 -56 -70 -77 -99 -151 l-32 -87
-87 41 c-107 50 -169 58 -235 29 -33 -15 -46 -27 -46 -41 0 -14 -5 -19 -15
-15 -8 4 -15 15 -15 25 0 23 -40 25 -122 8 -58 -13 -111 -58 -148 -127 l-19
-37 5 65 c3 36 7 73 9 83 2 12 -3 17 -19 17 -11 0 -26 8 -33 18 -10 17 -8 18
12 15 19 -4 25 2 41 43 29 77 24 110 -33 226 -52 104 -137 219 -187 251 -54
36 -337 77 -523 77 -57 0 -103 4 -103 9 0 5 7 44 15 87 20 106 45 326 45 394
0 37 -8 71 -24 105 -37 78 -155 205 -250 269 l-39 26 57 0 c42 0 72 7 112 27
68 33 204 142 258 206 38 46 41 53 44 123 4 63 2 74 -12 74 -19 0 -21 11 -4
28 7 7 17 8 28 2 14 -8 19 -2 29 32 25 80 25 141 3 185 -30 57 -128 179 -195
239 -47 44 -71 56 -154 83 -120 38 -347 89 -428 96 -33 2 -72 0 -87 -4z m4457
-1043 c-24 -21 -57 -59 -74 -85 -27 -40 -31 -56 -31 -111 0 -55 3 -65 20 -69
17 -4 17 -7 5 -20 -11 -10 -20 -11 -33 -4 -17 9 -21 5 -31 -31 -34 -113 -27
-156 42 -258 l31 -44 -30 21 c-28 20 -109 63 -117 63 -3 0 -7 -9 -10 -20 -3
-12 -14 -20 -27 -20 -19 0 -21 2 -10 15 11 13 8 21 -20 50 -52 54 -104 69
-208 61 -48 -3 -112 -12 -143 -20 l-56 -13 -28 56 c-15 31 -39 74 -54 96 -46
68 -46 68 -10 49 67 -36 226 -12 376 56 115 52 153 91 168 172 5 29 3 38 -11
46 -16 9 -15 10 5 17 13 4 28 2 37 -6 12 -10 17 -8 29 7 38 49 75 125 75 153
0 32 0 32 74 -46 l74 -78 -43 -37z m-5908 95 c-9 -9 -19 -14 -23 -11 -10 10 6
28 24 28 15 0 15 -1 -1 -17z m6986 -251 c112 -134 154 -157 391 -217 160 -40
168 -43 128 -50 -33 -5 -42 -11 -42 -27 0 -17 -2 -18 -15 -8 -9 7 -14 22 -13
34 4 25 -25 33 -118 35 -75 1 -116 -23 -223 -130 -130 -130 -156 -185 -185
-389 -27 -183 -37 -338 -26 -380 6 -21 30 -64 53 -97 54 -72 196 -206 247
-231 l38 -18 -44 -12 c-40 -11 -44 -15 -44 -42 0 -30 0 -30 -19 -11 -13 13
-18 27 -14 42 6 22 5 22 -75 16 -45 -4 -95 -13 -111 -21 -58 -30 -194 -215
-232 -315 -20 -53 -21 -69 -16 -301 3 -135 10 -263 15 -284 6 -22 24 -59 41
-83 l31 -43 -68 0 c-60 0 -75 -4 -115 -31 -57 -38 -198 -185 -232 -243 -13
-23 -32 -78 -40 -122 -9 -43 -18 -89 -20 -101 -5 -21 -6 -21 -77 14 -40 20
-83 39 -97 43 -30 9 -23 12 64 30 46 10 67 20 91 45 69 73 164 300 164 392 0
56 -39 267 -70 380 -11 42 -19 82 -16 88 2 7 16 15 30 19 53 13 154 68 191
104 88 85 297 398 315 471 19 79 -16 231 -86 378 -36 75 -62 99 -137 123 -34
10 -40 10 -51 -5 -12 -17 -13 -17 -20 0 -4 11 0 25 9 35 14 15 11 19 -27 47
-99 70 -134 76 -264 42 -145 -38 -223 -76 -289 -143 -106 -107 -288 -382 -306
-464 -13 -56 5 -167 45 -277 22 -59 22 -63 5 -74 -11 -6 -16 -17 -12 -27 4
-12 1 -15 -13 -12 -10 2 -20 13 -22 25 -3 19 -8 21 -35 17 -63 -11 -132 -36
-154 -57 -13 -11 -24 -19 -26 -16 -2 2 -24 40 -49 84 -24 44 -68 117 -96 162
l-52 82 38 6 c108 16 192 38 248 64 56 26 68 38 110 103 63 97 189 341 214
413 11 32 20 77 20 99 0 65 -27 229 -48 291 l-20 57 67 -67 c82 -84 126 -105
322 -154 204 -51 325 -68 376 -53 102 31 307 196 344 277 11 22 19 63 19 93 0
46 -3 55 -20 59 -16 4 -18 8 -9 19 7 8 21 11 35 8 13 -3 24 -2 24 2 0 5 7 42
15 82 15 72 15 75 -8 125 -25 54 -120 179 -176 232 l-32 29 23 17 c22 17 23
17 54 -41 17 -32 61 -94 97 -138z m-7066 115 c-2 -59 1 -68 38 -123 48 -71 54
-84 29 -63 -10 9 -43 29 -72 43 -52 26 -54 26 -59 8 -3 -11 -15 -22 -28 -25
-21 -4 -23 -2 -14 16 9 16 5 25 -24 55 l-36 35 75 44 c41 24 78 51 81 59 9 25
11 16 10 -49z m1710 -89 c-3 -7 -5 -2 -5 12 0 14 2 19 5 13 2 -7 2 -19 0 -25z
m-10 -140 c-3 -8 -6 -5 -6 6 -1 11 2 17 5 13 3 -3 4 -12 1 -19z m-10 -80 c-3
-8 -6 -5 -6 6 -1 11 2 17 5 13 3 -3 4 -12 1 -19z m7063 -31 c0 -2 -10 -12 -22
-23 l-23 -19 19 23 c18 21 26 27 26 19z m-60 -50 c0 -2 -10 -12 -22 -23 l-23
-19 19 23 c18 21 26 27 26 19z m-7013 -59 c-3 -8 -6 -5 -6 6 -1 11 2 17 5 13
3 -3 4 -12 1 -19z m5860 -10 c-3 -8 -6 -5 -6 6 -1 11 2 17 5 13 3 -3 4 -12 1
-19z m1093 19 c0 -2 -10 -12 -22 -23 l-23 -19 19 23 c18 21 26 27 26 19z m-70
-60 c0 -2 -10 -12 -22 -23 l-23 -19 19 23 c18 21 26 27 26 19z m-6893 -29 c-3
-8 -6 -5 -6 6 -1 11 2 17 5 13 3 -3 4 -12 1 -19z m5860 -10 c-3 -8 -6 -5 -6 6
-1 11 2 17 5 13 3 -3 4 -12 1 -19z m973 -11 c0 -2 -10 -12 -22 -23 l-23 -19
19 23 c18 21 26 27 26 19z m-60 -50 c0 -2 -10 -12 -22 -23 l-23 -19 19 23 c18
21 26 27 26 19z m-6783 -69 c-3 -8 -6 -5 -6 6 -1 11 2 17 5 13 3 -3 4 -12 1
-19z m6723 19 c0 -2 -10 -12 -22 -23 l-23 -19 19 23 c18 21 26 27 26 19z
m-863 -39 c-3 -7 -5 -2 -5 12 0 14 2 19 5 13 2 -7 2 -19 0 -25z m803 -11 c0
-2 -10 -12 -22 -23 l-23 -19 19 23 c18 21 26 27 26 19z m-6673 -49 c-3 -8 -6
-5 -6 6 -1 11 2 17 5 13 3 -3 4 -12 1 -19z m5860 -10 c-3 -8 -6 -5 -6 6 -1 11
2 17 5 13 3 -3 4 -12 1 -19z m753 9 c0 -2 -10 -12 -22 -23 l-23 -19 19 23 c18
21 26 27 26 19z m-6623 -139 c-3 -8 -6 -5 -6 6 -1 11 2 17 5 13 3 -3 4 -12 1
-19z m5860 -20 c-3 -7 -5 -2 -5 12 0 14 2 19 5 13 2 -7 2 -19 0 -25z m-5870
-60 c-3 -8 -6 -5 -6 6 -1 11 2 17 5 13 3 -3 4 -12 1 -19z m5860 -10 c-3 -8 -6
-5 -6 6 -1 11 2 17 5 13 3 -3 4 -12 1 -19z m-5870 -130 c-3 -8 -6 -5 -6 6 -1
11 2 17 5 13 3 -3 4 -12 1 -19z m5860 -20 c-3 -7 -5 -2 -5 12 0 14 2 19 5 13
2 -7 2 -19 0 -25z m-8300 -55 c-3 -10 -5 -4 -5 12 0 17 2 24 5 18 2 -7 2 -21
0 -30z m2447 11 c11 -4 14 -14 10 -29 -5 -19 -1 -23 27 -29 17 -3 44 -6 60 -6
26 0 29 -4 29 -30 0 -23 4 -30 20 -30 10 0 24 -10 31 -21 10 -20 9 -21 -9 -17
-12 3 -23 1 -24 -4 -2 -6 -28 6 -57 27 -29 21 -80 52 -113 70 l-60 32 31 6
c18 4 31 13 31 22 0 17 2 18 24 9z m5843 -26 c-3 -8 -6 -5 -6 6 -1 11 2 17 5
13 3 -3 4 -12 1 -19z m-2934 -40 c2 -7 0 -21 -5 -31 -12 -22 -17 -18 59 -56
88 -44 139 -40 284 23 12 5 19 -5 32 -51 8 -32 19 -66 22 -75 6 -15 1 -18 -26
-18 -61 0 -111 -21 -158 -65 -39 -37 -43 -45 -32 -59 12 -14 11 -16 -7 -16
-15 0 -29 15 -48 48 -54 95 -119 188 -168 241 l-51 54 33 -5 c23 -3 36 0 39 9
6 16 20 17 26 1z m2924 -110 c-3 -7 -5 -2 -5 12 0 14 2 19 5 13 2 -7 2 -19 0
-25z m-6070 -30 c-3 -7 -5 -2 -5 12 0 14 2 19 5 13 2 -7 2 -19 0 -25z m-2200
-35 c-3 -10 -5 -4 -5 12 0 17 2 24 5 18 2 -7 2 -21 0 -30z m2960 31 c-3 -3
-12 -4 -19 -1 -8 3 -5 6 6 6 11 1 17 -2 13 -5z m140 -20 c-3 -3 -12 -4 -19 -1
-8 3 -5 6 6 6 11 1 17 -2 13 -5z m5160 -16 c-3 -8 -6 -5 -6 6 -1 11 2 17 5 13
3 -3 4 -12 1 -19z m-5020 -4 c-3 -3 -12 -4 -19 -1 -8 3 -5 6 6 6 11 1 17 -2
13 -5z m-1030 -56 c-3 -7 -5 -2 -5 12 0 14 2 19 5 13 2 -7 2 -19 0 -25z m1300
16 c-3 -3 -12 -4 -19 -1 -8 3 -5 6 6 6 11 1 17 -2 13 -5z m140 -20 c-3 -3 -12
-4 -19 -1 -8 3 -5 6 6 6 11 1 17 -2 13 -5z m-3640 -51 c-3 -10 -5 -4 -5 12 0
17 2 24 5 18 2 -7 2 -21 0 -30z m8260 -49 c-4 -24 -9 -23 103 -37 9 -1 16 -15
18 -34 2 -23 7 -30 20 -26 10 2 23 -5 30 -18 13 -20 12 -21 -7 -16 -12 3 -24
1 -27 -4 -3 -5 -21 3 -40 18 -20 15 -72 46 -117 70 -50 26 -74 43 -60 43 35 0
53 11 53 32 0 18 2 19 16 7 9 -7 14 -22 11 -35z m2896 -66 c-13 -15 -11 -19
29 -42 61 -35 98 -48 136 -47 17 0 32 -1 32 -2 0 -2 -24 -26 -53 -55 l-53 -53
-67 90 c-37 49 -79 100 -95 112 l-27 22 37 -6 c31 -5 38 -2 43 14 7 20 7 20
20 2 11 -15 11 -21 -2 -35z m-8946 0 c-3 -7 -5 -2 -5 12 0 14 2 19 5 13 2 -7
2 -19 0 -25z m-2200 -105 c-3 -10 -5 -4 -5 12 0 17 2 24 5 18 2 -7 2 -21 0
-30z m2210 5 c-3 -7 -5 -2 -5 12 0 14 2 19 5 13 2 -7 2 -19 0 -25z m1485 -55
c-47 -100 -52 -168 -22 -369 29 -203 54 -308 82 -350 61 -91 303 -226 406
-226 58 0 135 38 127 62 -5 15 -2 17 15 13 12 -3 20 -14 20 -27 0 -22 2 -22
68 -14 37 5 81 16 97 24 41 20 98 100 158 222 38 78 54 102 70 102 11 0 25 7
31 16 11 14 13 14 25 1 13 -17 15 -14 -55 -77 -37 -34 -89 -117 -137 -219 -52
-111 -57 -174 -28 -376 12 -83 24 -159 27 -170 3 -11 -5 -3 -18 18 -17 29 -28
37 -44 34 -17 -3 -20 0 -16 15 2 10 13 18 23 18 25 0 25 30 -1 114 -18 58 -26
69 -68 98 -62 43 -200 101 -289 123 -61 15 -81 16 -140 6 -104 -18 -266 -59
-385 -97 -97 -31 -111 -39 -150 -83 -66 -73 -147 -254 -163 -363 -8 -55 36
-150 74 -158 23 -5 23 -6 7 -23 -10 -9 -22 -17 -28 -17 -22 0 24 -145 59 -182
l25 -26 -60 5 c-67 6 -129 -16 -172 -62 -20 -21 -22 -29 -12 -49 10 -22 9 -23
-14 -12 -33 16 -36 30 -15 79 43 101 101 298 101 344 -1 82 -68 217 -175 347
-26 33 -41 57 -32 53 43 -16 134 -18 176 -3 71 26 173 100 258 190 70 72 82
90 88 129 9 55 -2 107 -21 107 -17 0 -18 12 -2 28 7 7 17 8 29 1 15 -8 20 -3
29 28 6 21 14 63 17 94 7 68 -8 100 -102 216 -78 97 -135 149 -191 173 -88 39
-382 107 -505 117 -49 4 -73 2 -97 -11 -17 -9 -33 -16 -37 -16 -3 0 -5 29 -5
65 l0 65 38 -25 c53 -35 236 -66 472 -80 103 -6 122 -5 180 15 72 24 225 111
280 159 19 17 36 30 37 31 1 0 -15 -35 -35 -77z m4315 45 c-3 -8 -6 -5 -6 6
-1 11 2 17 5 13 3 -3 4 -12 1 -19z m750 -4 c-3 -3 -12 -4 -19 -1 -8 3 -5 6 6
6 11 1 17 -2 13 -5z m-8082 -64 c27 -27 47 -50 44 -50 -3 0 -27 23 -54 50 -27
28 -47 50 -44 50 3 0 27 -22 54 -50z m10992 -22 c-3 -8 -6 -5 -6 6 -1 11 2 17
5 13 3 -3 4 -12 1 -19z m-11660 -35 c-3 -10 -5 -2 -5 17 0 19 2 27 5 18 2 -10
2 -26 0 -35z m9300 41 c-3 -3 -12 -4 -19 -1 -8 3 -5 6 6 6 11 1 17 -2 13 -5z
m140 -20 c-3 -3 -12 -4 -19 -1 -8 3 -5 6 6 6 11 1 17 -2 13 -5z m-7230 -66
c-3 -7 -5 -2 -5 12 0 14 2 19 5 13 2 -7 2 -19 0 -25z m-1417 -33 c30 -30 52
-55 49 -55 -2 0 -29 25 -59 55 -30 30 -52 55 -49 55 2 0 29 -25 59 -55z m7217
23 c-3 -7 -5 -2 -5 12 0 14 2 19 5 13 2 -7 2 -19 0 -25z m3640 0 c-3 -7 -5 -2
-5 12 0 14 2 19 5 13 2 -7 2 -19 0 -25z m-9430 -80 c-3 -8 -6 -5 -6 6 -1 11 2
17 5 13 3 -3 4 -12 1 -19z m5800 -20 c-3 -7 -5 -2 -5 12 0 14 2 19 5 13 2 -7
2 -19 0 -25z m-8010 -65 c-3 -10 -5 -2 -5 17 0 19 2 27 5 18 2 -10 2 -26 0
-35z m918 -3 c27 -27 47 -50 44 -50 -3 0 -27 23 -54 50 -27 28 -47 50 -44 50
3 0 27 -22 54 -50z m10712 18 c-3 -8 -6 -5 -6 6 -1 11 2 17 5 13 3 -3 4 -12 1
-19z m-2107 -48 c-49 -96 -62 -144 -61 -226 1 -158 58 -477 97 -536 33 -51
105 -106 210 -160 112 -58 181 -79 226 -69 55 13 98 40 98 62 0 16 3 18 20 9
10 -6 17 -17 14 -24 -9 -23 8 -25 90 -11 55 10 86 21 104 37 36 33 108 147
148 233 29 65 37 75 59 75 17 0 25 5 25 17 0 16 2 16 15 2 19 -18 11 -46 -16
-54 -38 -12 -129 -154 -180 -280 -31 -79 -32 -82 -26 -200 4 -66 13 -158 22
-205 20 -111 19 -122 -6 -81 -14 24 -25 32 -39 28 -22 -6 -23 -5 -14 17 3 9
15 16 26 16 18 0 19 4 14 38 -14 77 -38 132 -69 158 -47 40 -203 111 -293 134
-90 23 -135 20 -324 -26 -204 -50 -313 -90 -354 -131 -51 -51 -103 -147 -143
-263 -40 -117 -41 -152 -5 -221 23 -44 32 -53 51 -51 20 3 21 1 11 -17 -6 -12
-18 -21 -26 -21 -19 0 -14 -40 12 -123 18 -53 45 -78 139 -125 123 -61 205
-85 290 -86 l80 -1 -80 -80 c-71 -71 -83 -88 -106 -154 l-26 -74 -42 79 c-23
43 -52 90 -64 102 -52 57 -207 109 -349 119 -49 3 -88 7 -88 8 0 1 13 35 30
74 16 40 48 129 71 199 34 104 40 136 35 176 -10 86 -89 231 -184 338 -26 28
-39 49 -29 45 44 -17 143 -18 185 -3 87 32 247 159 314 250 24 34 28 48 28
108 0 63 -2 68 -21 68 -18 0 -20 2 -8 16 8 9 21 13 35 10 21 -6 24 0 38 63 9
39 16 80 16 93 0 72 -206 316 -299 357 -70 30 -213 67 -369 96 -155 29 -187
30 -236 10 l-36 -15 0 66 c0 63 1 66 18 52 9 -9 31 -22 47 -31 46 -23 321 -59
468 -60 l132 -2 87 42 c96 46 190 107 227 147 33 35 35 33 11 -14z m2097 -32
c-3 -8 -6 -5 -6 6 -1 11 2 17 5 13 3 -3 4 -12 1 -19z m-11223 -110 l18 -27
-76 25 c-84 29 -83 25 -27 87 l25 27 21 -42 c11 -24 29 -55 39 -70z m1823 80
c-3 -7 -5 -2 -5 12 0 14 2 19 5 13 2 -7 2 -19 0 -25z m3112 -66 c89 -157 192
-303 235 -330 53 -35 70 -56 50 -60 -9 -2 -21 4 -28 13 -12 16 -15 16 -44 1
-17 -9 -33 -16 -36 -16 -2 0 -10 17 -17 38 -17 53 -51 94 -117 140 -57 39
-196 113 -240 127 -21 6 -19 9 25 44 27 21 64 56 83 79 19 22 37 41 40 41 3 0
25 -34 49 -77z m2688 46 c-3 -7 -5 -2 -5 12 0 14 2 19 5 13 2 -7 2 -19 0 -25z
m-6972 -28 c27 -27 47 -50 44 -50 -3 0 -27 23 -54 50 -27 28 -47 50 -44 50 3
0 27 -22 54 -50z m1182 -52 c-3 -7 -5 -2 -5 12 0 14 2 19 5 13 2 -7 2 -19 0
-25z m5800 -10 c-3 -7 -5 -2 -5 12 0 14 2 19 5 13 2 -7 2 -19 0 -25z m3580
-20 c-3 -7 -5 -2 -5 12 0 14 2 19 5 13 2 -7 2 -19 0 -25z m-9761 -5 c-7 -7
-26 7 -26 19 0 6 6 6 15 -2 9 -7 13 -15 11 -17z m-626 -100 c0 -8 -9 0 -50 45
l-45 47 48 -45 c26 -24 47 -45 47 -47z m627 55 c-3 -8 -6 -5 -6 6 -1 11 2 17
5 13 3 -3 4 -12 1 -19z m9750 -30 c-3 -7 -5 -2 -5 12 0 14 2 19 5 13 2 -7 2
-19 0 -25z m-9337 -24 c0 -22 4 -24 51 -24 27 0 48 -4 45 -9 -4 -5 -7 -34 -7
-64 -1 -50 3 -62 44 -124 62 -92 152 -190 205 -224 l43 -27 -68 -37 c-88 -48
-205 -135 -237 -177 -35 -47 -90 -176 -156 -372 -32 -92 -60 -164 -64 -158 -3
6 -27 24 -53 41 -40 27 -55 31 -114 31 -60 0 -67 -2 -72 -22 -5 -17 -9 -19
-20 -10 -8 7 -12 23 -10 36 4 21 0 24 -53 34 -98 20 -125 16 -190 -28 -32 -21
-78 -56 -102 -76 -23 -20 -40 -30 -36 -20 3 9 1 23 -6 31 -10 12 -9 16 4 21 9
3 23 1 31 -6 12 -10 19 -7 40 17 14 15 34 43 46 61 17 27 27 32 59 32 20 0 52
3 69 6 28 6 31 10 32 43 0 20 3 29 6 21 2 -8 9 -24 14 -36 6 -11 9 -26 7 -34
-4 -17 37 -27 118 -29 75 -1 116 23 223 130 84 85 126 142 146 198 19 56 52
263 65 411 10 107 9 131 -5 169 -16 47 -48 94 -98 148 -28 30 -28 31 -8 38 12
3 21 15 21 25 0 13 5 17 15 14 8 -4 15 -17 15 -30z m-423 -26 c-3 -8 -6 -5 -6
6 -1 11 2 17 5 13 3 -3 4 -12 1 -19z m6200 -30 c-3 -7 -5 -2 -5 12 0 14 2 19
5 13 2 -7 2 -19 0 -25z m-6734 -18 c9 0 25 -8 36 -19 16 -16 16 -21 5 -43 -14
-26 -54 -215 -54 -253 0 -57 -8 -56 -103 12 -134 94 -154 103 -239 103 -40 -1
-98 -7 -129 -14 l-56 -13 0 29 c0 25 3 29 21 23 40 -14 233 -17 306 -6 105 17
151 40 190 96 l32 47 -33 36 c-19 20 -25 29 -13 19 11 -9 28 -17 37 -17z
m4852 -36 c10 -14 15 -14 34 -4 27 14 31 11 40 -32 5 -18 11 -44 15 -56 7 -20
1 -17 -32 16 -22 22 -48 43 -59 46 -10 3 -24 15 -31 26 -10 17 -10 20 4 20 9
0 22 -7 29 -16z m5432 -16 c-3 -8 -6 -5 -6 6 -1 11 2 17 5 13 3 -3 4 -12 1
-19z m-3540 -30 c-3 -7 -5 -2 -5 12 0 14 2 19 5 13 2 -7 2 -19 0 -25z m-6220
-10 c-3 -8 -6 -5 -6 6 -1 11 2 17 5 13 3 -3 4 -12 1 -19z m9291 -12 c16 -35
137 -161 205 -213 69 -53 112 -67 179 -58 37 5 52 12 55 25 3 11 11 16 19 13
25 -9 15 -30 -26 -57 -34 -22 -39 -30 -30 -45 8 -16 7 -18 -12 -14 -11 4 -23
14 -25 25 -3 10 -8 18 -12 18 -18 0 -118 -33 -137 -45 -19 -12 -24 -10 -58 31
-47 56 -148 124 -252 169 -43 19 -78 37 -77 40 1 3 24 23 50 44 26 21 59 50
72 65 30 32 35 32 49 2z m459 -28 c-3 -8 -6 -5 -6 6 -1 11 2 17 5 13 3 -3 4
-12 1 -19z m-9760 -30 c-3 -8 -6 -5 -6 6 -1 11 2 17 5 13 3 -3 4 -12 1 -19z
m5858 -38 c8 -13 -5 -13 -25 0 -13 8 -13 10 2 10 9 0 20 -4 23 -10z m382 -52
c-3 -8 -6 -5 -6 6 -1 11 2 17 5 13 3 -3 4 -12 1 -19z m3510 -40 c-3 -7 -5 -2
-5 12 0 14 2 19 5 13 2 -7 2 -19 0 -25z m-9760 -10 c-3 -8 -6 -5 -6 6 -1 11 2
17 5 13 3 -3 4 -12 1 -19z m6283 -3 c0 -23 4 -25 44 -25 l44 0 -1 -63 c-2 -55
2 -70 33 -121 34 -58 195 -232 235 -256 12 -7 16 -13 8 -16 -47 -20 -193 -117
-240 -158 -65 -59 -111 -146 -184 -350 -43 -123 -45 -126 -74 -126 -16 0 -54
-11 -84 -25 -49 -23 -53 -27 -47 -53 3 -15 3 -21 0 -14 -3 6 -12 12 -19 12 -8
0 -15 10 -17 23 -3 24 -9 25 -108 5 -44 -8 -63 -18 -96 -52 -71 -74 -174 -298
-174 -379 0 -22 -3 -27 -12 -19 -37 30 -252 92 -320 92 -18 0 -57 -14 -87 -31
-44 -25 -52 -34 -49 -53 4 -19 1 -22 -14 -18 -10 2 -18 10 -18 18 0 7 -5 16
-10 19 -11 7 -107 -21 -127 -37 -8 -6 -22 6 -44 39 -18 26 -60 77 -93 112 -49
51 -55 61 -31 48 54 -27 195 -67 237 -67 25 0 59 10 90 27 40 22 49 31 45 49
-3 17 0 20 15 16 10 -2 18 -13 18 -23 0 -27 9 -28 88 -7 50 14 82 30 103 50
37 38 101 170 130 270 l23 77 33 -20 c28 -18 46 -21 100 -17 43 3 69 9 77 19
16 23 37 12 30 -15 -5 -20 -1 -24 33 -29 90 -15 147 -8 196 24 70 46 216 205
243 264 39 87 84 367 84 528 0 90 -13 122 -84 210 -42 51 -44 56 -26 62 11 3
20 13 20 21 0 8 7 14 15 14 9 0 15 -9 15 -25z m-6293 -77 c-3 -8 -6 -5 -6 6
-1 11 2 17 5 13 3 -3 4 -12 1 -19z m5860 -20 c-3 -8 -6 -5 -6 6 -1 11 2 17 5
13 3 -3 4 -12 1 -19z m-4771 -85 c-3 -8 -6 -20 -6 -26 0 -7 -6 -1 -14 13 -15
29 -12 41 10 33 8 -3 13 -12 10 -20z m-1099 -35 c-3 -7 -5 -2 -5 12 0 14 2 19
5 13 2 -7 2 -19 0 -25z m4814 -50 c27 -7 38 -17 42 -34 3 -18 0 -24 -14 -24
-11 0 -19 9 -21 23 -2 12 -9 21 -15 20 -84 -17 -90 -16 -101 13 -5 16 -13 36
-17 45 -5 14 3 12 42 -7 26 -14 64 -29 84 -36z m307 29 c5 -24 -24 -21 -31 4
-4 15 -1 19 11 17 9 -2 18 -11 20 -21z m739 1 c-3 -8 -6 -5 -6 6 -1 11 2 17 5
13 3 -3 4 -12 1 -19z m-5870 -60 c-3 -7 -5 -2 -5 12 0 14 2 19 5 13 2 -7 2
-19 0 -25z m5860 -20 c-3 -7 -5 -2 -5 12 0 14 2 19 5 13 2 -7 2 -19 0 -25z
m-5870 -110 c-3 -8 -6 -5 -6 6 -1 11 2 17 5 13 3 -3 4 -12 1 -19z m5860 -30
c-3 -7 -5 -2 -5 12 0 14 2 19 5 13 2 -7 2 -19 0 -25z m-3024 -95 c25 -47 112
-113 224 -171 121 -62 176 -78 227 -63 21 5 36 7 34 3 -2 -4 -24 -38 -49 -77
-25 -38 -52 -86 -59 -105 -7 -21 -15 -112 -19 -230 -6 -189 -6 -193 -19 -140
-8 30 -28 107 -45 170 -28 106 -34 118 -77 161 -55 55 -215 138 -317 165 l-71
18 24 38 c32 50 89 190 104 258 12 47 14 51 20 30 4 -14 14 -39 23 -57z
m-2846 45 c-3 -8 -6 -5 -6 6 -1 11 2 17 5 13 3 -3 4 -12 1 -19z m5860 -20 c-3
-8 -6 -5 -6 6 -1 11 2 17 5 13 3 -3 4 -12 1 -19z m1096 -39 c-5 -18 -6 -18
-18 -2 -15 21 -10 34 9 27 8 -3 12 -14 9 -25z m-3204 -24 l20 -34 -39 -12
c-24 -7 -40 -19 -42 -30 -2 -13 -7 -16 -17 -10 -11 7 -7 20 20 65 19 31 34 56
35 56 1 0 11 -16 23 -35z m2098 -77 c-3 -8 -6 -5 -6 6 -1 11 2 17 5 13 3 -3 4
-12 1 -19z m-10 -80 c-3 -7 -5 -2 -5 12 0 14 2 19 5 13 2 -7 2 -19 0 -25z
m-1322 -60 c3 -13 14 -64 25 -114 21 -97 84 -314 102 -348 6 -12 22 -33 36
-48 l26 -28 -58 0 c-50 0 -59 -3 -63 -20 -4 -17 -8 -18 -20 -8 -8 7 -12 21 -9
34 5 20 0 23 -60 34 -96 18 -134 10 -212 -47 l-67 -49 0 210 c0 116 -3 225 -7
241 l-6 30 91 1 c105 1 136 12 186 69 25 29 30 40 20 51 -8 10 -8 14 0 14 6 0
13 -10 16 -22z m-818 -80 c-2 -18 -4 -6 -4 27 0 33 2 48 4 33 2 -15 2 -42 0
-60z m2130 0 c-3 -7 -5 -2 -5 12 0 14 2 19 5 13 2 -7 2 -19 0 -25z m-6809 -86
c2 -7 -5 -12 -16 -12 -19 0 -32 18 -32 42 0 13 42 -14 48 -30z m6799 16 c-3
-8 -6 -5 -6 6 -1 11 2 17 5 13 3 -3 4 -12 1 -19z m-6231 -53 c-3 -9 -13 -40
-21 -70 l-16 -55 -55 42 c-30 22 -53 42 -51 44 4 4 130 51 141 53 4 0 5 -6 2
-14z m2672 8 c-33 -64 -79 -170 -93 -212 l-17 -53 -54 102 c-29 56 -59 109
-65 116 -9 11 -5 14 22 15 19 0 70 9 114 18 102 23 97 22 93 14z m1449 -120
c-2 -16 -4 -3 -4 27 0 30 2 43 4 28 2 -16 2 -40 0 -55z m5600 -180 c-2 -16 -4
-3 -4 27 0 30 2 43 4 28 2 -16 2 -40 0 -55z m-8674 18 c43 -17 114 -14 125 5
8 14 10 14 21 0 11 -13 11 -19 1 -31 -16 -19 -16 -19 43 -42 l47 -19 -52 0
c-68 0 -142 -36 -133 -64 5 -15 2 -17 -15 -13 -12 3 -20 14 -20 28 0 21 -3 21
-47 14 -27 -4 -53 -8 -58 -8 -7 -1 -6 30 4 89 15 90 15 90 36 70 11 -10 33
-23 48 -29z m510 -113 l-6 -107 -41 25 c-43 26 -100 54 -176 85 l-45 18 45 -5
c37 -4 57 1 115 29 39 19 79 42 90 50 11 8 21 15 22 14 0 -1 -1 -50 -4 -109z
m-2510 -130 c3 -18 8 -41 12 -50 11 -27 -6 -21 -50 16 l-39 33 29 16 c41 22
42 22 48 -15z m5084 -45 c-2 -16 -4 -3 -4 27 0 30 2 43 4 28 2 -16 2 -40 0
-55z m-434 -90 c43 -49 144 -126 218 -167 70 -39 127 -46 188 -25 29 10 31 14
33 67 1 48 2 50 5 17 3 -22 10 -43 18 -47 7 -5 11 -17 8 -28 -5 -19 0 -20 85
-20 84 0 93 2 123 27 l32 28 -6 -25 c-3 -14 -11 -54 -17 -90 -6 -36 -13 -78
-16 -93 l-6 -29 -19 31 c-46 76 -197 130 -386 139 -100 4 -115 3 -145 -16 -57
-35 -81 -67 -69 -90 9 -17 7 -19 -14 -14 -16 3 -25 11 -25 23 0 11 -3 19 -6
19 -25 0 -150 -79 -165 -104 -29 -48 -58 -162 -75 -295 l-6 -54 -19 53 c-23
65 -52 104 -156 206 l-83 81 25 13 c14 7 25 22 25 32 0 10 7 18 15 18 9 0 15
-10 15 -26 0 -24 3 -25 33 -19 89 18 142 38 167 65 59 63 159 294 161 368 l0
37 17 -25 c9 -13 30 -39 45 -57z m6034 -75 c-2 -18 -4 -6 -4 27 0 33 2 48 4
33 2 -15 2 -42 0 -60z m-9736 -45 c13 -16 12 -17 -3 -4 -10 7 -18 15 -18 17 0
8 8 3 21 -13z m376 -15 c-3 -8 -6 -5 -6 6 -1 11 2 17 5 13 3 -3 4 -12 1 -19z
m2293 -27 c0 -9 7 -26 15 -37 21 -28 19 -30 -26 -42 -36 -9 -40 -8 -34 6 3 10
11 36 18 59 11 41 27 49 27 14z m7077 -148 c-2 -16 -4 -3 -4 27 0 30 2 43 4
28 2 -16 2 -40 0 -55z m-9470 17 c57 0 66 3 70 20 7 25 28 21 28 -5 0 -15 -18
-26 -75 -47 -98 -36 -119 -53 -154 -121 -23 -46 -26 -60 -16 -72 10 -12 9 -16
-2 -20 -20 -8 -54 12 -122 69 l-57 50 58 26 c66 31 95 59 118 112 l15 37 36
-24 c30 -20 49 -25 101 -25z m423 20 c0 -22 -1 -23 -24 -14 -13 5 -14 9 -5 20
16 20 29 17 29 -6z m1785 -190 c10 -11 16 -20 13 -20 -3 0 -13 9 -23 20 -10
11 -16 20 -13 20 3 0 13 -9 23 -20z m70 -60 c10 -11 16 -20 13 -20 -3 0 -13 9
-23 20 -10 11 -16 20 -13 20 3 0 13 -9 23 -20z m75 -65 c13 -14 21 -25 18 -25
-2 0 -15 11 -28 25 -13 14 -21 25 -18 25 2 0 15 -11 28 -25z m3220 -10 c0 -5
-5 -3 -10 5 -5 8 -10 20 -10 25 0 6 5 3 10 -5 5 -8 10 -19 10 -25z m-5549 -42
c13 -16 12 -17 -3 -4 -17 13 -22 21 -14 21 2 0 10 -8 17 -17z m2399 -8 c13
-14 21 -25 18 -25 -2 0 -15 11 -28 25 -13 14 -21 25 -18 25 2 0 15 -11 28 -25z
m-2329 -42 c13 -16 12 -17 -3 -4 -17 13 -22 21 -14 21 2 0 10 -8 17 -17z
m2399 -18 c13 -14 21 -25 18 -25 -2 0 -15 11 -28 25 -13 14 -21 25 -18 25 2 0
15 -11 28 -25z m70 -60 c13 -14 21 -25 18 -25 -2 0 -15 11 -28 25 -13 14 -21
25 -18 25 2 0 15 -11 28 -25z m-3269 -2 c13 -16 12 -17 -3 -4 -17 13 -22 21
-14 21 2 0 10 -8 17 -17z m3345 -65 l29 -33 -32 29 c-31 28 -38 36 -30 36 2 0
16 -15 33 -32z m-2305 -25 c13 -16 12 -17 -3 -4 -17 13 -22 21 -14 21 2 0 10
-8 17 -17z m2374 -33 c10 -11 16 -20 13 -20 -3 0 -13 9 -23 20 -10 11 -16 20
-13 20 3 0 13 -9 23 -20z m75 -65 c13 -14 21 -25 18 -25 -2 0 -15 11 -28 25
-13 14 -21 25 -18 25 2 0 15 -11 28 -25z m70 -60 c13 -14 21 -25 18 -25 -2 0
-15 11 -28 25 -13 14 -21 25 -18 25 2 0 15 -11 28 -25z m70 -60 c13 -14 21
-25 18 -25 -2 0 -15 11 -28 25 -13 14 -21 25 -18 25 2 0 15 -11 28 -25z
m-2279 -2 c13 -16 12 -17 -3 -4 -17 13 -22 21 -14 21 2 0 10 -8 17 -17z m2354
-63 c10 -11 16 -20 13 -20 -3 0 -13 9 -23 20 -10 11 -16 20 -13 20 3 0 13 -9
23 -20z"/>
<path d="M5190 6785 c-142 -32 -286 -98 -325 -149 -13 -17 -29 -50 -36 -74
-11 -38 -10 -44 6 -56 17 -12 17 -13 0 -20 -10 -3 -24 -1 -33 6 -12 10 -19 7
-43 -22 -37 -44 -69 -113 -69 -147 0 -16 7 -53 15 -83 8 -30 15 -56 15 -58 0
-2 -23 22 -51 52 -42 46 -54 54 -66 44 -8 -6 -25 -12 -38 -13 -24 -1 -24 0 -5
20 19 20 19 21 -8 70 -34 63 -71 87 -173 115 -127 34 -246 46 -311 32 -69 -16
-182 -105 -359 -281 -119 -119 -127 -130 -148 -195 -31 -97 -51 -210 -51 -287
0 -57 4 -71 29 -105 48 -65 89 -100 103 -86 14 14 48 16 48 3 0 -5 -5 -11 -12
-13 -15 -5 -4 -45 24 -89 47 -70 218 -124 393 -124 119 0 126 3 257 112 167
139 275 250 308 317 36 74 71 225 72 318 1 37 3 67 4 65 1 -1 17 -38 35 -82
23 -56 47 -94 78 -125 51 -51 297 -218 406 -275 68 -36 72 -37 150 -32 88 6
172 31 281 82 88 42 120 74 139 139 14 47 14 52 -1 63 -16 12 -16 13 1 19 10
4 26 2 36 -4 15 -10 23 -3 58 51 23 34 44 76 47 94 8 41 -24 164 -72 278 -49
116 -94 162 -284 287 -247 163 -296 181 -420 153z m-670 -538 c0 -2 -10 -12
-22 -23 l-23 -19 19 23 c18 21 26 27 26 19z m-60 -50 c0 -2 -10 -12 -22 -23
l-23 -19 19 23 c18 21 26 27 26 19z m-60 -50 c0 -2 -10 -12 -22 -23 l-23 -19
19 23 c18 21 26 27 26 19z m-70 -61 c0 -2 -8 -10 -17 -17 -16 -13 -17 -12 -4
4 13 16 21 21 21 13z m-50 -39 c0 -2 -10 -12 -22 -23 l-23 -19 19 23 c18 21
26 27 26 19z m-70 -61 c0 -2 -8 -10 -17 -17 -16 -13 -17 -12 -4 4 13 16 21 21
21 13z m-60 -49 c0 -2 -10 -12 -22 -23 l-23 -19 19 23 c18 21 26 27 26 19z
m-60 -50 c0 -2 -10 -12 -22 -23 l-23 -19 19 23 c18 21 26 27 26 19z m-60 -50
c0 -2 -10 -12 -22 -23 l-23 -19 19 23 c18 21 26 27 26 19z m-60 -50 c0 -2 -10
-12 -22 -23 l-23 -19 19 23 c18 21 26 27 26 19z m-60 -50 c0 -2 -10 -12 -22
-23 l-23 -19 19 23 c18 21 26 27 26 19z m-60 -50 c0 -2 -10 -12 -22 -23 l-23
-19 19 23 c18 21 26 27 26 19z m-60 -50 c0 -2 -10 -12 -22 -23 l-23 -19 19 23
c18 21 26 27 26 19z m-60 -51 c0 -2 -8 -10 -17 -17 -16 -13 -17 -12 -4 4 13
16 21 21 21 13z"/>
<path d="M4806 5670 c-65 -11 -129 -45 -268 -143 -156 -110 -255 -192 -274
-229 -25 -49 -44 -157 -44 -259 0 -168 19 -223 96 -278 l34 -24 28 24 c15 13
21 17 15 9 -7 -8 -13 -22 -13 -32 0 -9 -8 -21 -17 -27 -16 -8 -16 -12 -3 -37
8 -16 35 -50 60 -75 59 -61 110 -72 309 -68 l146 4 75 43 c176 101 401 277
429 336 31 64 44 166 39 300 -5 137 -16 166 -75 215 -43 36 -50 37 -74 15 -16
-15 -17 -14 -12 8 3 12 14 30 24 38 18 14 16 18 -29 80 -27 36 -61 71 -77 78
-61 28 -261 39 -369 22z m434 -244 c0 -2 -8 -10 -17 -17 -16 -13 -17 -12 -4 4
13 16 21 21 21 13z m-90 -70 c0 -2 -8 -10 -17 -17 -16 -13 -17 -12 -4 4 13 16
21 21 21 13z m-220 -170 c0 -2 -8 -10 -17 -17 -16 -13 -17 -12 -4 4 13 16 21
21 21 13z m-90 -70 c0 -2 -8 -10 -17 -17 -16 -13 -17 -12 -4 4 13 16 21 21 21
13z m-40 -30 c0 -2 -8 -10 -17 -17 -16 -13 -17 -12 -4 4 13 16 21 21 21 13z
m-90 -70 c0 -2 -8 -10 -17 -17 -16 -13 -17 -12 -4 4 13 16 21 21 21 13z m-130
-100 c0 -2 -8 -10 -17 -17 -16 -13 -17 -12 -4 4 13 16 21 21 21 13z m-90 -70
c0 -2 -8 -10 -17 -17 -16 -13 -17 -12 -4 4 13 16 21 21 21 13z"/>
<path d="M10640 5291 c-70 -13 -105 -31 -250 -129 -169 -113 -275 -202 -299
-250 -32 -62 -43 -149 -40 -293 4 -151 14 -177 81 -232 30 -24 40 -28 52 -18
11 9 15 8 20 -5 6 -16 -3 -28 -29 -37 -18 -7 86 -138 121 -153 83 -35 341 -38
426 -5 69 26 332 208 425 294 24 22 51 54 60 71 37 72 53 270 32 393 -10 55
-17 69 -56 108 -47 47 -61 53 -81 33 -9 -9 -12 -6 -12 15 0 17 5 27 15 27 22
0 18 16 -15 65 -39 56 -82 92 -128 105 -50 14 -266 21 -322 11z m390 -275 c0
-2 -8 -10 -17 -17 -16 -13 -17 -12 -4 4 13 16 21 21 21 13z m-40 -30 c0 -2 -8
-10 -17 -17 -16 -13 -17 -12 -4 4 13 16 21 21 21 13z m-90 -70 c0 -2 -8 -10
-17 -17 -16 -13 -17 -12 -4 4 13 16 21 21 21 13z m-90 -70 c0 -2 -8 -10 -17
-17 -16 -13 -17 -12 -4 4 13 16 21 21 21 13z m-40 -30 c0 -2 -8 -10 -17 -17
-16 -13 -17 -12 -4 4 13 16 21 21 21 13z m-50 -40 c0 -2 -8 -10 -17 -17 -16
-13 -17 -12 -4 4 13 16 21 21 21 13z m-40 -30 c0 -2 -8 -10 -17 -17 -16 -13
-17 -12 -4 4 13 16 21 21 21 13z m-40 -30 c0 -2 -8 -10 -17 -17 -16 -13 -17
-12 -4 4 13 16 21 21 21 13z m-50 -40 c0 -2 -8 -10 -17 -17 -16 -13 -17 -12
-4 4 13 16 21 21 21 13z m-40 -30 c0 -2 -8 -10 -17 -17 -16 -13 -17 -12 -4 4
13 16 21 21 21 13z m-90 -70 c0 -2 -8 -10 -17 -17 -16 -13 -17 -12 -4 4 13 16
21 21 21 13z m-40 -30 c0 -2 -8 -10 -17 -17 -16 -13 -17 -12 -4 4 13 16 21 21
21 13z m-50 -40 c0 -2 -8 -10 -17 -17 -16 -13 -17 -12 -4 4 13 16 21 21 21 13z
m-40 -30 c0 -2 -8 -10 -17 -17 -16 -13 -17 -12 -4 4 13 16 21 21 21 13z m-90
-70 c0 -2 -8 -10 -17 -17 -16 -13 -17 -12 -4 4 13 16 21 21 21 13z"/>
</g>
</svg>
