<?xml version="1.0" standalone="no"?>
<!DOCTYPE svg PUBLIC "-//W3C//DTD SVG 20010904//EN"
 "http://www.w3.org/TR/2001/REC-SVG-20010904/DTD/svg10.dtd">
<svg version="1.0" xmlns="http://www.w3.org/2000/svg"
 width="1280.000000pt" height="1041.000000pt" viewBox="0 0 1280.000000 1041.000000"
 preserveAspectRatio="xMidYMid meet">
<metadata>
Created by potrace 1.15, written by Peter Selinger 2001-2017
</metadata>
<g transform="translate(0.000000,1041.000000) scale(0.100000,-0.100000)"
fill="#000000" stroke="none">
<path d="M1490 9426 c-222 -53 -340 -168 -440 -428 -60 -155 -71 -356 -32
-568 24 -129 75 -496 93 -670 17 -152 17 -521 0 -635 -39 -277 -89 -502 -202
-925 -103 -383 -119 -487 -126 -806 -6 -290 1 -396 47 -649 30 -165 44 -224
110 -455 234 -817 246 -1055 98 -1870 -56 -312 -56 -312 -57 -430 -2 -212 34
-375 121 -550 40 -79 68 -120 114 -166 101 -101 196 -139 439 -174 60 -9 1268
-11 4830 -8 4502 3 4754 4 4825 21 113 27 213 79 284 151 110 110 202 331 227
544 14 116 7 321 -14 417 -21 94 -72 379 -97 545 -74 490 -41 808 160 1510 66
231 80 290 110 455 43 239 51 326 50 553 0 342 -22 506 -110 832 -134 496
-170 660 -221 1000 -17 108 -17 477 0 630 18 174 69 541 93 670 27 147 29 344
5 445 -47 195 -159 392 -264 462 -60 41 -159 80 -232 92 -35 6 -1890 12 -4906
15 -3999 4 -4860 3 -4905 -8z"/>
</g>
</svg>
